<?xml version="1.0" encoding="UTF-8" standalone="no"?>
<!-- Generator: Adobe Illustrator 19.1.0, SVG Export Plug-In . SVG Version: 6.00 Build 0)  -->

<svg
   xmlns:dc="http://purl.org/dc/elements/1.1/"
   xmlns:cc="http://creativecommons.org/ns#"
   xmlns:rdf="http://www.w3.org/1999/02/22-rdf-syntax-ns#"
   xmlns:svg="http://www.w3.org/2000/svg"
   xmlns="http://www.w3.org/2000/svg"
   xmlns:sodipodi="http://sodipodi.sourceforge.net/DTD/sodipodi-0.dtd"
   xmlns:inkscape="http://www.inkscape.org/namespaces/inkscape"
   version="1.1"
   id="Layer_1"
   x="0px"
   y="0px"
   viewBox="0 0 19 19"
   style="enable-background:new 0 0 19 19;"
   xml:space="preserve"
   inkscape:version="0.91 r13725"
   sodipodi:docname="checkbox-filled.svg"><metadata
     id="metadata13"><rdf:RDF><cc:Work
         rdf:about=""><dc:format>image/svg+xml</dc:format><dc:type
           rdf:resource="http://purl.org/dc/dcmitype/StillImage" /></cc:Work></rdf:RDF></metadata><defs
     id="defs11" /><sodipodi:namedview
     pagecolor="#ffffff"
     bordercolor="#666666"
     borderopacity="1"
     objecttolerance="10"
     gridtolerance="10"
     guidetolerance="10"
     inkscape:pageopacity="0"
     inkscape:pageshadow="2"
     inkscape:window-width="1920"
     inkscape:window-height="1018"
     id="namedview9"
     showgrid="false"
     inkscape:zoom="35.132042"
     inkscape:cx="8.2977155"
     inkscape:cy="12.470157"
     inkscape:window-x="-8"
     inkscape:window-y="-8"
     inkscape:window-maximized="1"
     inkscape:current-layer="Layer_1" /><style
     type="text/css"
     id="style3">
	.st0{fill:#A7B9C4;}
	.st1{fill:#5A6772;}
</style><path
     class="st0"
     d="M17,2v15H2V2H17 M17,0H2C0.9,0,0,0.9,0,2v15c0,1.1,0.9,2,2,2h15c1.1,0,2-0.9,2-2V2C19,0.9,18.1,0,17,0L17,0z"
     id="path5" /><path
     class="st1"
     d="M16,5.6c-0.1-0.5-0.3-0.9-0.7-1.2c-0.8-0.6-2-0.5-2.6,0.4l-4.2,5.6L6.2,8.2c-0.7-0.7-1.9-0.7-2.7,0  C3.2,8.6,3,9,3,9.5s0.2,1,0.6,1.3l3.7,3.6C7.6,14.8,8.1,15,8.6,15l0.1,0c0.5,0,1-0.3,1.4-0.7L15.6,7C15.9,6.6,16.1,6.1,16,5.6z"
     id="path7" /><path
     style="fill:#a0a0a0;stroke:none;stroke-width:1px;stroke-linecap:butt;stroke-linejoin:miter;stroke-opacity:1"
     d="M 1.776603,18.974981 C 0.96783173,18.880187 0.31052869,18.312386 0.07738952,17.507142 l -0.0655573,-0.22643 0,-7.7706838 c 0,-7.3604387 0.002678,-7.7812032 0.05072541,-7.9699324 C 0.22898487,0.88637318 0.72035522,0.34851082 1.3605227,0.11932119 l 0.245296,-0.0878197 7.8068727,-0.0073688 c 8.6899856,-0.0082024 8.0154656,-0.0234282674 8.4460966,0.19065308 0.431347,0.21443746 0.712376,0.49546615 0.926813,0.92681345 0.214082,0.430631 0.198856,-0.24388865 0.190653,8.4460966 l -0.0074,7.8068722 -0.07661,0.216224 c -0.113321,0.319848 -0.262709,0.554999 -0.504574,0.79425 -0.343767,0.340051 -0.689081,0.507783 -1.168611,0.567639 -0.273751,0.03417 -15.1516777,0.03638 -15.442491,0.0023 z m 15.235433,-9.4720688 -0.0072,-7.5073917 -7.5073921,-0.00717 -7.5073916,-0.00717 0,7.5145609 0,7.514561 7.5145609,0 7.5145608,0 -0.0072,-7.5073918 z"
     id="path3341"
     inkscape:connector-curvature="0" /></svg>